<mxfile host="app.diagrams.net" modified="2023-06-18T00:10:11.264Z" agent="Mozilla/5.0 (Windows NT 10.0; Win64; x64) AppleWebKit/537.36 (KHTML, like Gecko) Chrome/114.0.0.0 Safari/537.36 Edg/114.0.1823.51" etag="0-vsj6srGAWVUJlratcP" version="21.4.0" type="github">
  <diagram name="Page-1" id="VGHvvajVorK2azADJzkz">
    <mxGraphModel dx="2308" dy="832" grid="1" gridSize="10" guides="1" tooltips="1" connect="1" arrows="1" fold="1" page="1" pageScale="1" pageWidth="850" pageHeight="1100" math="0" shadow="0">
      <root>
        <mxCell id="0" />
        <mxCell id="1" parent="0" />
        <mxCell id="I-8bGkA8Zce3OLZ5yMU2-1" value="函数" style="rounded=0;whiteSpace=wrap;html=1;fillColor=#e1d5e7;strokeColor=#9673a6;" vertex="1" parent="1">
          <mxGeometry x="70" y="630" width="390" height="230" as="geometry" />
        </mxCell>
        <mxCell id="I-8bGkA8Zce3OLZ5yMU2-2" value="极限和无穷小" style="rounded=0;whiteSpace=wrap;html=1;fillColor=#fff2cc;strokeColor=#d6b656;" vertex="1" parent="1">
          <mxGeometry x="70" y="400" width="390" height="210" as="geometry" />
        </mxCell>
        <mxCell id="I-8bGkA8Zce3OLZ5yMU2-3" value="导数和微分" style="rounded=0;whiteSpace=wrap;html=1;" vertex="1" parent="1">
          <mxGeometry x="540" y="400" width="390" height="200" as="geometry" />
        </mxCell>
        <mxCell id="I-8bGkA8Zce3OLZ5yMU2-4" value="积分" style="rounded=0;whiteSpace=wrap;html=1;" vertex="1" parent="1">
          <mxGeometry x="60" y="200" width="370" height="150" as="geometry" />
        </mxCell>
        <mxCell id="I-8bGkA8Zce3OLZ5yMU2-5" value="级数" style="rounded=0;whiteSpace=wrap;html=1;" vertex="1" parent="1">
          <mxGeometry x="-270" y="380" width="300" height="220" as="geometry" />
        </mxCell>
        <mxCell id="I-8bGkA8Zce3OLZ5yMU2-6" value="微分方程" style="rounded=0;whiteSpace=wrap;html=1;" vertex="1" parent="1">
          <mxGeometry x="-340" y="180" width="350" height="160" as="geometry" />
        </mxCell>
        <mxCell id="I-8bGkA8Zce3OLZ5yMU2-7" value="多元函数微积分" style="rounded=0;whiteSpace=wrap;html=1;" vertex="1" parent="1">
          <mxGeometry x="-320" y="660" width="290" height="150" as="geometry" />
        </mxCell>
        <mxCell id="I-8bGkA8Zce3OLZ5yMU2-8" value="应用" style="rounded=0;whiteSpace=wrap;html=1;" vertex="1" parent="1">
          <mxGeometry x="560" y="130" width="340" height="190" as="geometry" />
        </mxCell>
      </root>
    </mxGraphModel>
  </diagram>
</mxfile>
